<svg xmlns="http://www.w3.org/2000/svg" viewBox="0 0 933 933" isolation="isolate">
  <path d="M356.6 214.7L497.8 214.7 497.8 801.6 356.6 801.6 356.6 214.7ZM712.8 267.5Q716 546 719 773 697.5 787.3 644 798.9L637.8 267.5 712.8 267.5Z" fill-rule="evenodd" fill="rgb(252,179,0)"/>
  <rect x="550.5" y="300.8" width="87.3" height="484.3" transform="matrix(1,0,0,1,0,0)" fill="rgb(238,238,238)"/>
  <path d="M585.5 322.2C581.3 322.7 581.1 323 581.1 328.7 581.1 338.3 587.7 342.4 592.9 336.2 593.7 335 594.5 331.2 594.5 327.6 594.5 320.7 595 321 585.5 322.2ZM575 357.1C568.6 361 566.5 365 566.5 372.6 566.5 380.6 568.9 384.4 574.9 386.4 585.3 389.9 595.8 381.4 595.8 369.8 595.8 358.6 584.1 351.4 575 357.1ZM587.9 403.6L582.2 404 582.7 410.8C583.4 417.2 585.9 421.2 589.4 421.2 592.6 421.2 595.8 415.5 595.8 410 595.8 406.7 595.4 403.9 594.9 403.6 594.2 403.4 591.1 403.4 587.9 403.6ZM586.9 478.1C584.3 478.6 583.8 479.5 583.8 483.9 583.8 490.9 585.8 494.5 589.7 494.5 594.1 494.5 596.1 491.4 596.9 483.8 597.5 477.1 597.4 477.1 593.7 477.3 591.5 477.4 588.5 477.8 586.9 478.1ZM579.8 527.1C579.8 531.1 580.3 534.5 581.1 534.5 582.9 534.5 593.9 527.4 594.3 525.9 594.6 524.9 583.5 519.8 580.9 519.8 580.2 519.8 579.8 523.1 579.8 527.1ZM577.4 574.7L577.8 583.1 583.4 582.7C586.5 582.5 590.6 581.8 592.6 581.3 596.1 580.3 596.1 580.3 588.3 574.5 576.2 565.1 577 565.1 577.4 574.7ZM577.8 604.1C571.7 607.4 569.1 610.9 569.1 615.9 569.1 625 578.9 629.1 589.7 624.6 598.7 620.9 601.5 610.5 595 605.3 591 602.2 582.3 601.5 577.8 604.1ZM576.6 641.8C571.1 644.6 569.3 647.7 569.1 653.3 569.1 658.7 571.9 662.1 577.9 663.3 583.8 664.3 592.6 661.7 595.7 657.5 599.3 653.1 599.3 645.9 595.8 642.5 592.5 639.1 582.3 638.9 576.6 641.8ZM581.1 763.5C581.1 768.2 583 771.8 585.3 771.8 587.8 771.8 590.5 767.1 590.5 763 590.5 758.7 590.2 758.5 585.8 758.5 581.3 758.5 581.1 758.6 581.1 763.5ZM712.5 573.4 447.9 108L448.8 159 349.3 163.8Q351.7 224.3 349.3 247.8C344.1 256.9 229.1 250.9 216.2 240.4 213.5 238.3 212 226.5 210.6 223.1 208.1 217.2 204.8 211.2 199.5 207.4 196.5 205.1 193.6 205.3 189.9 205.5 173.4 206.5 134 203.5 133.9 229.9 132.2 295.7 133.9 539.8 134.2 541.1 136.3 550.8 157.1 555.8 164.2 559.4 182.1 568.2 201.2 585 215.6 599 217.5 600.9 219.5 603 221.2 605 242.9 631 265.4 660.4 278.6 692.1 289.7 718.7 295 768.7 319.8 776.6 333 780.8 345.5 778.9 353.2 782.2L353.2 801.6C353.2 820.6 354.2 822.9 364.8 827.4 527 835.5 549.9 836 719 813.7 721.3 799.8 720.3 783 719 772 704.5 775.3 655.2 786.9 654 785.7 653.5 785 651.7 743.9 651.1 691.1 650.2 580.9 648.6 470.6 646.2 362.3 645.4 320.7 644.9 286.3 645.3 286Q645.8 285.5 712.5 278 712.3 263 712.3 247.4C712.5 219.9 712.6 218.7 715.5 214.7 718.2 211.1 718.5 209.2 718.5 194.2 718.5 181.9 719.3 170.2 718.1 169 717.1 168.2 689.1 165 673.1 163.8 637.9 161.2 619.2 160 614.5 159Q610.1 157.9 611.1 108L447.9 108ZM396.6 227.9C408.3 228.8 431.8 229.9 448.8 230.4 456.5 230.6 473.9 227.9 480.5 232.2 482.2 233.3 479.4 249.4 476.9 249.8 449.2 254.4 418.1 250.9 390.1 250.2 386.2 250 367.8 251.3 362.3 248.4 360.6 247.5 361.9 227.4 364.4 226.5 373.5 223.2 387.2 227.2 396.6 227.9L396.6 227.9ZM198.3 229.5C206 237.2 192.7 242 187.3 236.5 183.2 232.2 194.4 225.6 198.3 229.5L198.3 229.5 198.3 229.5ZM142.4 269.8C142.5 271.5 143.5 284.3 139 283.4 135.4 282.6 137.4 264.7 137.7 262 138.5 252.4 142.3 267.3 142.4 269.8L142.4 269.8ZM167.1 267C169.6 271 161.9 279.6 160.5 276.4 158.2 271.5 161.7 258 167.1 267L167.1 267 167.1 267ZM273 282.5L273 315.5C273 319.6 269.6 323 265.5 323L249.5 323C245.4 323 242 319.6 242 315.5L242 282.5C242 278.4 245.4 275 249.5 275L265.5 275C269.6 275 273 278.4 273 282.5ZM337 282.5L337 315.5C337 319.6 333.6 323 329.5 323L314.5 323C310.4 323 307 319.6 307 315.5L307 282.5C307 278.4 310.4 275 314.5 275L329.5 275C333.6 275 337 278.4 337 282.5ZM405.4 282.5L405.4 315.5C405.4 319.6 402 323 397.9 323L382.5 323C378.4 323 375 319.6 375 315.5L375 282.5C375 278.4 378.4 275 382.5 275L397.9 275C402 275 405.4 278.4 405.4 282.5ZM476.9 282.5L476.9 315.5C476.9 319.6 473.6 323 469.4 323L453.5 323C449.4 323 446 319.6 446 315.5L446 282.5C446 278.4 449.4 275 453.5 275L469.4 275C473.6 275 476.9 278.4 476.9 282.5ZM597.7 326.3C597.5 345 580.5 350.6 577.4 330.4L577.4 330.4 576.5 323.4 569.4 323.8C566 323.9 561.4 324.6 562.7 320 562.7 320 567.7 319.1 567.7 319.1 576.3 318.2 586.6 316.9 595.8 316.4 598.7 316.3 597.7 325 597.7 326.3L597.7 326.3ZM592.9 354.3C610.1 370.3 589.4 405.2 568.5 387.7 550.9 373 574.5 337.1 592.9 354.3L592.9 354.3 592.9 354.3ZM599.8 406.7C599.8 415.4 588.5 436.4 581.3 420.2L581.3 420.2 579.7 416.8 572.7 423.6C572 424.4 564.8 432.8 563.6 430 560.4 422.8 579.7 415.2 578.5 407.2 577.8 403.1 562.8 407.2 563.9 403.6 565.8 397.4 587.6 398.8 592.2 398.7L592.2 398.7 599.8 398.6 599.8 406.7ZM599.8 448.7C599.8 450.3 600.4 465 598.6 465.2 595.4 465.6 598.7 453 595 451.7 586.1 448.8 576.3 453.2 567.2 453.3 566.2 453.3 564.7 453.1 564 452.2 561.6 449 570.9 447.5 571.6 447.4 578 446.7 588.3 448.7 594.2 445.1 597.9 442.9 593.1 431.6 597.5 430.8 601.7 430 599.8 447.6 599.8 448.7L599.8 448.7 599.8 448.7ZM600.9 477.1C601.7 485.8 594.7 510 583.3 495.5L583.3 495.5 579.9 491.1 572.6 498.3C554.3 516.4 580.4 483.8 579.8 480.6 578.7 474.9 561.5 485 564 475.9 564 475.9 585.4 473.1 585.4 473.1 591.4 472.5 600.1 469.3 600.9 477.1L600.9 477.1ZM584.2 515.7C606.1 524.6 606.1 525 583.8 538.7 574.6 544.5 566.7 549.1 566.2 549.1 563.1 549.1 565.9 544.7 571.3 541.1 575.3 538.3 577 536.2 576.6 534.9 576.2 533.8 575.8 529.4 575.8 525.3L575.8 517.5 570.5 515.4C568.7 514.7 563.1 512.2 565.7 509.5 568.1 507 580.9 514.4 584.2 515.7L584.2 515.7ZM588.9 569.8C591.7 571.9 593.8 573.5 596.5 576 609.3 587.5 586.9 586.4 579.6 588 575.9 588.8 578.3 594.9 575.5 595.1 574.3 595.2 571.4 589.4 568.5 588.7 564.3 587.8 565.3 585 569 584.3L569 584.3 573.1 583.4 573.1 572.5C573.1 569.4 573.1 566.8 573.4 563.7 574.4 553.9 585.5 567.2 588.9 569.8L588.9 569.8ZM593.9 599.1C615.1 608.1 593.6 639 574 630 552 620 575 591.2 593.9 599.1L593.9 599.1 593.9 599.1ZM598.7 639.7C614.3 657.1 581.7 678.6 568.2 662.7 554.1 646.1 585.3 624.5 598.7 639.7L598.7 639.7 598.7 639.7ZM595.1 699.1C595.1 702.2 595.8 706.3 594.3 709.1 592.3 712.9 592.1 695.7 587.9 695 579 693.4 586.8 709.4 580.7 708.7 574.6 708 582.9 696.5 575.8 695.8 570.5 695.3 570.2 699.3 569.7 703.4 569.6 704.8 567.1 720.2 565.6 711.4 564.7 706.2 563.1 698.1 565.9 693.1 568.7 688.3 583.7 687.8 588.3 687.7 596.2 687.5 595.1 692.6 595.1 699.1L595.1 699.1 595.1 699.1ZM631.7 703.4C633.3 709.2 633.4 716.2 629.2 721.1 626 725 623.2 722.4 619.5 720.6 615.2 718.4 612.4 729.6 606.9 724.3 602.5 720 600.6 707 605.2 702.3 611.2 696.1 603.1 720 611.1 719.8 617.7 719.6 613.8 708.2 618.5 706.6 622.4 705.3 619.3 717.9 624.6 717.2 629.3 716.7 628.1 689.7 631.7 703.4L631.7 703.4 631.7 703.4ZM329.5 754L318.3 754C314.2 754 310.8 750.6 310.8 746.5L310.8 719.5C310.8 715.4 314.2 712 318.3 712L329.5 712C333.6 712 337 715.4 337 719.5L337 746.5C337 750.6 333.6 754 329.5 754ZM399.9 719.5L399.9 746.5C399.9 750.6 396.5 754 392.4 754L381.5 754C377.4 754 374 750.6 374 746.5L374 719.5C374 715.4 377.4 712 381.5 712L392.4 712C396.5 712 399.9 715.4 399.9 719.5ZM467 754L455.4 754C451.2 754 447.9 750.6 447.9 746.5L447.9 719.5C447.9 715.4 451.2 712 455.4 712L467 712C471.2 712 474.5 715.4 474.5 719.5L474.5 746.5C474.5 750.6 471.2 754 467 754ZM594.9 717.4C595.8 719.5 591.1 723.6 589.9 724.9L589.9 724.9 584.5 730.5 590.3 735.5C597.1 741.3 595.8 747 587.8 739.8L587.8 739.8 581.8 734.7 574.2 742.2C573.1 743.3 567.5 750.3 565.8 747.6 562.8 743 576 735.2 577.1 731.7 578.2 728.2 563 724.5 565.3 718.1 566.3 715.3 573.4 721.9 574.1 722.5L574.1 722.5 580.7 727.7 586.5 721.8C587.8 720.4 593.3 713.1 594.9 717.4L594.9 717.4ZM614.5 730.6C614.5 734 608.8 738.4 607.2 741.3 604.9 745.1 608.1 752.6 613.1 751.7 616.9 750.9 619.2 736.1 619.6 736.7 623.8 742.8 620.1 760.5 610 756.9 601.1 753.7 602.1 741.3 606.2 735 607.1 733.5 614.5 726 614.5 730.6L614.5 730.6 614.5 730.6ZM626.3 733C628.1 734.9 629.5 737.2 630.6 739.6 630.7 740 632.9 749.1 631.3 749 628.2 748.8 625.1 738.9 622.9 736.4 612.7 732.1 619.4 725.6 626.3 733L626.3 733 626.3 733ZM594.5 759.8C594.5 762.9 594.3 766 593.5 769 589.5 783.2 577.1 775.9 577.1 764.5L577.1 764.5 577.1 759.5 571.5 760.1C559.7 760.7 569.8 754.6 575.8 753.7 580.6 752.9 585.4 752.2 590.2 751.9L590.2 751.9 594.5 751.8 594.5 759.8ZM478.5 787.7C479.1 788.8 479.8 790.8 479.8 792 479.8 794.1 478.5 794.4 469 794.4 459.8 794.4 416.6 790.4 402.8 788.2 391.6 786.5 402.8 785.7 438.4 785.7 471.4 785.7 477.4 786 478.5 787.7Z" fill-rule="evenodd" fill="rgb(0,0,0)"/>
</svg>
