<svg xmlns="http://www.w3.org/2000/svg" viewBox="0 0 933.3 933.3" isolation="isolate">
  <path d="M356.7 214.8L498 214.8 498 801.9 356.7 801.9 356.7 214.8ZM713 267.6L712.5 368.9 711.5 475.9 711.5 541.3 712.5 592.8 714.1 653.5Q715.3 745.5 718.7 767.1 722.1 788.7 644.2 799.2L638 267.6 713 267.6Z" fill-rule="evenodd" fill="rgb(252,179,0)"/>
  <rect x="550.7" y="300.9" width="87.3" height="484.5" transform="matrix(1,0,0,1,0,0)" fill="rgb(238,238,238)"/>
  <path d="M585.7 322.3C581.5 322.8 581.3 323.1 581.3 328.8 581.3 338.4 587.9 342.5 593.1 336.3 593.9 335.1 594.7 331.3 594.7 327.7 594.7 320.8 595.2 321.1 585.7 322.3ZM575.2 357.2C568.8 361.1 566.7 365.1 566.7 372.7 566.7 380.7 569.1 384.5 575.1 386.5 585.5 390 596 381.5 596 369.9 596 358.7 584.3 351.5 575.2 357.2ZM588.1 403.7L582.4 404.1 582.9 410.9C583.6 417.3 586.1 421.3 589.6 421.3 592.8 421.3 596 415.6 596 410.1 596 406.8 595.6 404 595.1 403.7 594.4 403.5 591.3 403.5 588.1 403.7ZM587.1 478.3C584.5 478.8 584 479.7 584 484.1 584 491.1 586 494.7 589.9 494.7 594.3 494.7 596.3 491.6 597.1 484 597.7 477.3 597.6 477.3 593.9 477.5 591.7 477.6 588.7 478 587.1 478.3ZM580 527.3C580 531.3 580.5 534.7 581.3 534.7 583.1 534.7 594.1 527.6 594.5 526.1 594.8 525.1 583.7 520 581.1 520 580.4 520 580 523.3 580 527.3ZM577.6 574.9L578 583.3 583.6 582.9C586.7 582.7 590.8 582 592.8 581.5 596.3 580.5 596.3 580.5 588.5 574.7 576.4 565.3 577.2 565.3 577.6 574.9ZM578 604.3C571.9 607.6 569.3 611.1 569.3 616.1 569.3 625.2 579.1 629.3 589.9 624.8 598.9 621.1 601.7 610.7 595.2 605.5 591.2 602.4 582.5 601.7 578 604.3ZM576.8 642C571.3 644.8 569.5 647.9 569.3 653.5 569.3 658.9 572.1 662.3 578.1 663.5 584 664.5 592.8 661.9 595.9 657.7 599.5 653.3 599.5 646.1 596 642.7 592.7 639.3 582.5 639.1 576.8 642ZM581.3 763.7C581.3 768.4 583.2 772 585.5 772 588 772 590.7 767.3 590.7 763.2 590.7 758.9 590.4 758.7 586 758.7 581.5 758.7 581.3 758.8 581.3 763.7ZM710.3 354.9C710 390.4 709.6 423.2 709.5 428 708.4 489.1 710.3 630.7 712.3 630.7 713.1 630.7 713.3 610.3 712.7 573.6 711.3 479.7 711.3 450.9 712.4 368.9 712.9 323.1 712.9 290.7 712.1 290.7 711.5 290.7 710.7 318.5 710.3 354.9ZM712 650C712 659.3 712.5 665.3 713.3 665.3 714.1 665.3 714.7 659.3 714.7 650 714.7 640.7 714.1 634.7 713.3 634.7 712.5 634.7 712 640.7 712 650ZM713.3 675.3C713.3 676.4 714 677.3 714.7 677.3 715.5 677.3 716 676.4 716 675.3 716 674.3 715.5 673.3 714.7 673.3 714 673.3 713.3 674.3 713.3 675.3ZM713.3 688.7C713.3 692.7 714 696 714.7 696 715.5 696 716 692.7 716 688.7 716 684.7 715.5 681.3 714.7 681.3 714 681.3 713.3 684.7 713.3 688.7ZM713.3 721.3C713.3 734.7 713.9 742.7 714.7 742.7 715.5 742.7 716 734.7 716 721.3 716 708 715.5 700 714.7 700 713.9 700 713.3 708 713.3 721.3ZM713.3 756C713.3 757.5 714 758.7 714.7 758.7 715.5 758.7 716 757.5 716 756 716 754.5 715.5 753.3 714.7 753.3 714 753.3 713.3 754.5 713.3 756ZM659.3 412.1C658.8 412.9 659.6 413.9 660.9 414.1 662.4 414.5 664.1 416.7 664.9 418.8 666.8 423.6 670.3 423.9 672 419.2 674.8 412 674 410.7 666.8 410.7 663.1 410.7 659.7 411.3 659.3 412.1ZM670.7 416.8C670.7 417.9 669.7 418.7 668.7 418.7 666.7 418.7 665.9 415.9 667.5 414.3 668.8 413.1 670.7 414.5 670.7 416.8ZM660.9 425.1C658.3 428 658 432.1 660.3 434.4 661.3 435.5 661.3 436.4 660.1 437.9 658.3 440.1 660.1 441.7 663.2 440.5 664.5 440 665.6 440.5 666.1 441.9 666.5 443.1 667.5 444 668.1 444 669.7 444 669.6 439.5 668 437.9 666.9 436.8 667.1 435.3 668.1 432.8 669.5 430 669.5 428.7 668 426 665.9 422 663.9 421.7 660.9 425.1ZM666.3 428.8C667.3 431.6 664.5 434.4 662.5 432.4 660.8 430.7 661.9 426.7 664 426.7 664.8 426.7 665.7 427.6 666.3 428.8ZM664.9 447.6C662.9 447.9 660.8 449.2 660 450.5 658.3 453.9 660 455.2 662.1 452.3 663.6 450.4 664.3 450.3 666.5 451.6 668.5 452.9 669.5 452.8 670.7 451.3 672.1 449.5 671.5 446.4 669.6 446.8 669.1 446.9 667.1 447.3 664.9 447.6ZM660.7 457.3C660.3 458 661.1 458.7 662.5 458.7 664 458.7 666 459.6 667.1 460.7 668.8 462.3 669.1 462.1 668.8 459.3 668.7 456.7 668 456 665.1 456 663.1 456 661.1 456.5 660.7 457.3ZM660.9 464.8C660.4 465.3 660 466.8 660 468.1 660 469.7 660.8 470.3 662.7 469.7 664.3 469.3 665.3 468.1 665.1 466.9 664.7 464.7 662.3 463.5 660.9 464.8ZM664 470.5C660.4 471.6 659.5 475.1 662.7 475.7 663.9 475.9 665.9 475.2 667.3 474.1 670.7 471.6 668.5 469.5 664 470.5ZM663.5 485.2C662.7 486.5 664.8 488.5 668.4 489.7 671.9 491.1 669.7 493.5 666 492.5 662.7 491.7 660.3 494.1 662.4 496.3 664 497.9 673.3 494.8 673.3 492.7 673.3 491.1 666.5 484 665.1 484 664.5 484 663.9 484.5 663.5 485.2ZM662.1 503.2C659.3 507.6 659.5 509.7 662.7 512.7 665.2 514.9 665.2 515.1 662.7 518.4 659.3 522.5 659.3 525.6 662.4 528.4 666 531.6 670.3 531.2 672.8 527.5 675.6 523.2 674.8 518.3 671.1 516.7 667.3 515.1 667.2 513.9 670.7 512.9 673.7 512.1 675.6 505.9 673.7 502.8 672.9 501.6 670.5 500.5 668.4 500.3 665.3 500 663.9 500.7 662.1 503.2ZM671.7 506.3C672.3 510 667.5 512.9 664.5 510.5 662.5 508.9 662 505.1 663.6 503.5 665.7 501.5 671.3 503.3 671.7 506.3ZM671.7 522.1C672 523.6 671.2 525.6 670.1 526.5 666 530 660.7 524.7 664.1 520.5 666.4 517.7 671.2 518.7 671.7 522.1ZM665.9 539.2C664.8 542.1 666.3 545.7 668.4 544.9 669.2 544.7 670 543.1 670 541.3 670 537.7 667.1 536.1 665.9 539.2ZM672 552C672 553.5 672.7 554.7 673.3 554.7 674.1 554.7 674.7 553.5 674.7 552 674.7 550.5 674.1 549.3 673.3 549.3 672.7 549.3 672 550.5 672 552ZM661.3 558C661.3 560.7 662.1 563.1 663.1 563.3 665.5 564.3 673.7 562.1 674.3 560.4 675.1 558.1 667.5 557.2 666.3 559.5 664.7 562.4 662.4 560.1 663.2 556.5 663.7 554.7 663.5 553.3 662.7 553.3 662 553.3 661.3 555.5 661.3 558ZM662.7 568.7C660.7 571.1 662 573.2 664.1 571.1 666 569.2 672 570.5 672 572.8 672 573.9 672.7 574.7 673.3 574.7 675.1 574.7 675.1 572.5 673.3 569.2 671.6 566.1 665.1 565.7 662.7 568.7ZM661.3 575.9C661.3 577.9 665.2 580.3 667.3 579.5 668.4 579.1 669.3 577.7 669.3 576.5 669.3 574.8 668.9 574.7 667.5 575.9 666.1 576.9 665.3 577.1 664.7 576 663.6 574.4 661.3 574.3 661.3 575.9ZM498 102C484.8 105.4 464.9 108 451.2 108L451.2 108 448 108 448 133.3 448 158.7 444.4 160.1C442.9 160.7 439.8 161 439 161.2 413.9 164.5 388.7 165 363.7 169.9 361.6 170.3 358.8 170.9 356.7 171.3 353.7 172 350.9 174.2 348.7 176.1L348.7 176.1 344 180.3 344 196.5C344 211.7 358 233.2 349.4 247.9 344.2 257 319.1 251.7 312 251.5 307.2 251.3 302.5 251.3 297.7 251.1 289.3 250.8 280.9 250.5 272.5 250.1 258.9 249.4 229.2 251 216.3 240.5 213.6 238.4 212.1 226.6 210.7 223.2 208.2 217.3 204.9 211.3 199.6 207.5 196.6 205.2 193.7 205.4 190 205.6 173.5 206.6 154.5 210.7 139.7 218.1 136.9 219.6 134.5 221.6 134.2 224.9 134.1 226.6 134 228.3 133.9 230 132.2 295.8 134.9 361.9 135.2 427.7 135.4 465.6 133.3 504.1 136.5 541.9 136.6 543.2 136.7 544.5 137 545.8 139.1 555.5 157.2 556 164.3 559.6 182.2 568.4 201.3 585.2 215.7 599.2 217.6 601.1 219.6 603.2 221.3 605.2 243 631.2 265.5 660.6 278.7 692.3 289.8 718.9 295.5 757.9 319.9 776.8 326.4 781.8 339.4 779.1 347.1 782.5L347.1 782.5 353.3 785.5 353.3 801.9C353.3 820.9 354.3 823.2 364.9 827.7 374.1 831.7 414.7 837.2 446.7 838.8 461.7 839.6 477.3 840.8 481.3 841.5 490.7 843.2 544.5 845.6 550.7 844.7 553.2 844.3 560.8 842.1 567.3 840.1 578.1 836.7 581.7 836.1 604.7 835.5 635.5 834.4 665.9 830.7 687.3 825.2 696.1 822.9 705.7 820.5 708.5 819.7 711.5 819.1 715.9 816.4 718.3 814 722.5 809.7 722.7 809.2 722.5 799.2 722.5 787.2 720.7 768.3 719.6 767.1 718.5 766 710.9 772.1 710 774.8 709.6 776 707.9 777.3 706.3 777.7 704.7 778.1 698.8 779.7 693.3 781.2 679.2 785.1 654.4 789.6 653.2 788.4 652.7 787.7 651.9 744.1 651.3 691.3 650.4 581.1 648.8 470.8 646.4 362.4 645.6 320.8 645.1 286.4 645.5 286.1 646 285.6 700.1 278.5 706.9 278.1 708.8 278.1 710.9 277.6 711.5 276.9 712 276.4 712.5 263.1 712.5 247.5 712.7 220 712.8 218.8 715.7 214.8 718.4 211.2 718.7 209.3 718.7 194.3 718.7 182 718.1 177.3 716.9 176.1 715.9 175.3 709.7 172.5 703.3 170 692.8 165.7 689.3 165.1 673.3 163.9 638.1 161.3 626 160.1 621.3 159.1 616.9 158 616.7 157.5 615.9 151.1 615.3 147.3 614.7 143.7 614.3 142.9 613.7 142.3 613.1 134.3 612.7 125.3L612 108.8 599.7 105.3C595.7 104.2 594.5 103.8 590.1 103 563.4 98.4 534.6 102.2 507.6 100.8 504.3 100.6 501.3 101.2 498 102L498 102ZM396.7 228C408.4 228.9 431.9 230 448.9 230.5 456.6 230.7 474.1 228 480.7 232.3 482.4 233.4 479.6 249.5 477.1 249.9 449.3 254.5 418.2 251 390.2 250.3 386.3 250.1 367.9 251.4 362.4 248.5 360.7 247.6 362 227.5 364.5 226.6 373.6 223.3 387.3 227.3 396.7 228L396.7 228ZM198.4 229.6C206.1 237.3 192.8 242.1 187.4 236.6 183.3 232.3 194.5 225.7 198.4 229.6L198.4 229.6 198.4 229.6ZM142.4 269.9C142.5 271.6 143.5 284.4 139 283.5 135.4 282.7 137.4 264.8 137.7 262.1 138.5 252.5 142.3 267.4 142.4 269.9L142.4 269.9ZM167.2 267.1C169.7 271.1 162 279.7 160.6 276.5 158.3 271.6 161.8 258.1 167.2 267.1L167.2 267.1 167.2 267.1ZM268.1 276.8C280.9 288.6 273.4 333.7 250.9 317.4 241.8 310.8 241.6 282.2 250.5 275.5 255 272.1 264.2 272.9 268.1 276.8L268.1 276.8 268.1 276.8ZM330.3 278.7C340.6 282.5 339.3 308.2 336.3 316.2 333.3 323.8 324.3 323.4 317.7 321.8 314.2 321 311.7 318.8 310 315.6 300.7 298.9 306.7 270.5 330.3 278.7L330.3 278.7 330.3 278.7ZM405.5 283.9C410.8 290.2 410.3 321.3 400 322.4 392.5 323.2 381.5 324.6 378.5 315.6 375.8 307.3 372 282.8 385.4 280.2 391.1 279.1 401.3 278.9 405.5 283.9L405.5 283.9 405.5 283.9ZM475.2 300.9C475.7 314.7 475.6 320.9 474.5 322.1 473.5 323.3 470 324 464.5 324 451.5 324 450.7 322.7 450.7 302.3 450.7 282.8 451.2 281.7 462.7 281.1 474.9 280.4 474.1 279.1 475.2 300.9ZM597.9 326.4C597.7 345.1 580.7 350.7 577.6 330.5L577.6 330.5 576.7 323.5 569.6 323.9C566.2 324 561.6 324.7 562.9 320.1 562.9 320.1 567.9 319.2 567.9 319.2 576.5 318.3 586.8 317 596 316.5 598.9 316.4 597.9 325.1 597.9 326.4L597.9 326.4ZM593.1 354.4C610.3 370.4 589.6 405.3 568.7 387.8 551.1 373.1 574.7 337.2 593.1 354.4L593.1 354.4 593.1 354.4ZM600 406.8C600 415.5 588.7 436.5 581.5 420.3L581.5 420.3 579.9 416.9 572.9 423.7C572.2 424.5 565 432.9 563.8 430.1 560.6 422.9 579.9 415.3 578.7 407.3 578 403.2 563 407.3 564.1 403.7 566 397.5 587.8 398.9 592.4 398.8L592.4 398.8 600 398.7 600 406.8ZM600 448.8C600 450.4 600.6 465.1 598.8 465.3 595.6 465.7 598.9 453.1 595.2 451.8 586.3 448.9 576.5 453.3 567.4 453.4 566.4 453.4 564.9 453.2 564.2 452.3 561.8 449.1 571.1 447.6 571.8 447.5 578.2 446.8 588.5 448.8 594.4 445.2 598.1 443 593.3 431.7 597.7 430.9 601.9 430.1 600 447.7 600 448.8L600 448.8 600 448.8ZM601.1 477.3C601.9 486 594.9 510.2 583.5 495.7L583.5 495.7 580.1 491.3 572.8 498.5C554.5 516.6 580.6 484 580 480.8 578.9 475.1 561.7 485.2 564.2 476.1 564.2 476.1 585.6 473.3 585.6 473.3 591.6 472.7 600.3 469.5 601.1 477.3L601.1 477.3ZM584.4 515.9C606.3 524.8 606.3 525.2 584 538.9 574.8 544.7 566.9 549.3 566.4 549.3 563.3 549.3 566.1 544.9 571.5 541.3 575.5 538.5 577.2 536.4 576.8 535.1 576.4 534 576 529.6 576 525.5L576 517.7 570.7 515.6C568.9 514.9 563.3 512.4 565.9 509.7 568.3 507.2 581.1 514.6 584.4 515.9L584.4 515.9ZM589.1 570C591.9 572.1 594 573.7 596.7 576.2 609.5 587.7 587.1 586.6 579.8 588.2 576.1 589 578.5 595.1 575.7 595.3 574.5 595.4 571.6 589.6 568.7 588.9 564.5 588 565.5 585.2 569.2 584.5L569.2 584.5 573.3 583.6 573.3 572.7C573.3 569.6 573.3 567 573.6 563.9 574.6 554.1 585.7 567.4 589.1 570L589.1 570ZM594.1 599.3C615.3 608.3 593.8 639.2 574.2 630.2 552.2 620.2 575.2 591.4 594.1 599.3L594.1 599.3 594.1 599.3ZM598.9 639.9C614.5 657.3 581.9 678.8 568.4 662.9 554.3 646.3 585.5 624.7 598.9 639.9L598.9 639.9 598.9 639.9ZM595.3 699.3C595.3 702.4 596 706.5 594.5 709.3 592.5 713.1 592.3 695.9 588.1 695.2 579.2 693.6 587 709.6 580.9 708.9 574.8 708.2 583.1 696.7 576 696 570.7 695.5 570.4 699.5 569.9 703.6 569.8 705 567.3 720.4 565.8 711.6 564.9 706.4 563.3 698.3 566.1 693.3 568.9 688.5 583.9 688 588.5 687.9 596.4 687.7 595.3 692.8 595.3 699.3L595.3 699.3 595.3 699.3ZM631.9 703.6C633.5 709.4 633.6 716.4 629.4 721.3 626.2 725.2 623.4 722.6 619.7 720.8 615.4 718.6 612.6 729.8 607.1 724.5 602.7 720.2 600.8 707.2 605.4 702.5 611.4 696.3 603.3 720.2 611.3 720 617.9 719.8 614 708.4 618.7 706.8 622.6 705.5 619.5 718.1 624.8 717.4 629.5 716.9 628.3 689.9 631.9 703.6L631.9 703.6 631.9 703.6ZM334.9 711.6C342.5 720.4 343.2 744.6 333.6 752.7 327.4 757.9 320.7 756.6 314.9 751.5L314.9 751.5 310 746.8 310.4 729.7C310.5 726.2 310.6 723.6 310.9 719.9 311.8 708.5 323.8 704.4 334.3 711 334.6 711.1 334.7 711.4 334.9 711.6L334.9 711.6ZM386.7 716.8C386.7 721.1 392 712.2 394.5 712 412.4 710.5 410.8 734.1 408.2 746 407.5 749.2 406.3 753 402.9 754.1 396.8 756.1 385.6 756.3 380.9 750.9 374.7 743.6 378.1 730.1 378.9 721.8 379.2 717.9 386.7 708.3 386.7 716.8L386.7 716.8 386.7 716.8ZM473.6 716.3C473.6 728.1 477.8 740.9 474.7 752.5 473.6 757 456.5 756 453.6 752.6 448.5 746.6 450.4 727.2 452.1 720.3 454 712.8 472.8 708.2 473.6 716.3L473.6 716.3 473.6 716.3ZM595.1 717.6C596 719.7 591.3 723.8 590.1 725.1L590.1 725.1 584.7 730.7 590.5 735.7C597.3 741.5 596 747.2 588 740L588 740 582 734.9 574.4 742.4C573.3 743.5 567.7 750.5 566 747.8 563 743.2 576.2 735.4 577.3 731.9 578.4 728.4 563.2 724.7 565.5 718.3 566.5 715.5 573.6 722.1 574.3 722.7L574.3 722.7 580.9 727.9 586.7 722C588 720.6 593.5 713.3 595.1 717.6L595.1 717.6ZM614.7 730.8C614.7 734.2 609 738.6 607.4 741.5 605.1 745.3 608.3 752.8 613.3 751.9 617.1 751.1 619.4 736.3 619.8 736.9 624 743 620.3 760.7 610.2 757.1 601.3 753.9 602.3 741.5 606.4 735.2 607.3 733.7 614.7 726.2 614.7 730.8L614.7 730.8 614.7 730.8ZM626.5 733.2C628.3 735.1 629.7 737.4 630.8 739.8 630.9 740.2 633.1 749.3 631.5 749.2 628.4 749 625.3 739.1 623.1 736.6 612.9 732.3 619.6 725.8 626.5 733.2L626.5 733.2 626.5 733.2ZM594.7 760C594.7 763.1 594.5 766.2 593.7 769.2 589.7 783.5 577.3 776.1 577.3 764.7L577.3 764.7 577.3 759.7 571.7 760.3C559.9 760.9 570 754.8 576 753.9 580.8 753.1 585.6 752.4 590.4 752.1L590.4 752.1 594.7 752 594.7 760ZM478.7 788C479.3 789.1 480 791.1 480 792.3 480 794.4 478.7 794.7 469.2 794.7 459.9 794.7 416.7 790.7 402.9 788.5 391.7 786.8 402.9 786 438.5 786 471.6 786 477.6 786.3 478.7 788Z" fill-rule="evenodd" fill="rgb(0,0,0)"/>
</svg>